<svg width="1300" viewBox="0 0 1300 372" role="img" xmlns="http://www.w3.org/2000/svg" font-family="'Segoe UI', 'Helvetica Neue', Arial, sans-serif">
<title>YesMan AI — A FNV Modding Toolbox for Claude and Codex</title>
<desc>Banner: the title YesMan AI, subtitle "A FNV Modding Toolbox for Claude and Codex", a tagline about turning Fallout: New Vegas into an AI-assisted modding workshop, and two badges for the Claude Code and Codex coding agents.</desc>
<defs>
<linearGradient id="bg" x1="0" y1="0" x2="1" y2="1"><stop offset="0" stop-color="#16120b"/><stop offset="1" stop-color="#241a0f"/></linearGradient>
<radialGradient id="glow" cx="0.5" cy="0.5" r="0.5"><stop offset="0" stop-color="#E8A33D" stop-opacity="0.16"/><stop offset="1" stop-color="#E8A33D" stop-opacity="0"/></radialGradient>
</defs>

<rect x="0" y="0" width="1300" height="372" fill="url(#bg)"/>
<ellipse cx="360" cy="150" rx="560" ry="230" fill="url(#glow)"/>
<rect x="0" y="366" width="1300" height="6" fill="#E8A33D"/>
<rect x="0" y="0" width="1300" height="3" fill="#E8A33D" fill-opacity="0.55"/>

<text x="70" y="152" font-family="'Arial Black', 'Segoe UI', Arial, sans-serif" font-size="78" font-weight="800" fill="#F5E9D0" letter-spacing="1">YesMan AI</text>
<text x="74" y="198" font-size="30" font-weight="500" fill="#E8A33D">A FNV Modding Toolbox for Claude and Codex</text>
<text x="74" y="238" font-size="20" font-weight="400" fill="#C7B79C">Turn your Fallout: New Vegas install into an AI-assisted modding workshop.</text>
<text x="74" y="284" font-size="18" font-weight="500" fill="#B99B63">MO2-aware · xEditLib · GECK &amp; NVSE scripting · builds mods · Live Link</text>

<line x1="932" y1="96" x2="932" y2="276" stroke="#E8A33D" stroke-width="2" stroke-opacity="0.35"/>
<text x="970" y="118" font-size="15" font-weight="500" fill="#9a875f" letter-spacing="1">POWERED BY YOUR AGENT</text>

<rect x="970" y="130" width="270" height="60" rx="13" fill="#2a2013" stroke="#E8A33D" stroke-width="1.5" stroke-opacity="0.65"/>
<g transform="translate(1005 160)" stroke="#D97757" stroke-width="2.6" stroke-linecap="round">
<g transform="rotate(0)"><line x1="0" y1="-5" x2="0" y2="-13"/></g>
<g transform="rotate(30)"><line x1="0" y1="-5" x2="0" y2="-13"/></g>
<g transform="rotate(60)"><line x1="0" y1="-5" x2="0" y2="-13"/></g>
<g transform="rotate(90)"><line x1="0" y1="-5" x2="0" y2="-13"/></g>
<g transform="rotate(120)"><line x1="0" y1="-5" x2="0" y2="-13"/></g>
<g transform="rotate(150)"><line x1="0" y1="-5" x2="0" y2="-13"/></g>
<g transform="rotate(180)"><line x1="0" y1="-5" x2="0" y2="-13"/></g>
<g transform="rotate(210)"><line x1="0" y1="-5" x2="0" y2="-13"/></g>
<g transform="rotate(240)"><line x1="0" y1="-5" x2="0" y2="-13"/></g>
<g transform="rotate(270)"><line x1="0" y1="-5" x2="0" y2="-13"/></g>
<g transform="rotate(300)"><line x1="0" y1="-5" x2="0" y2="-13"/></g>
<g transform="rotate(330)"><line x1="0" y1="-5" x2="0" y2="-13"/></g>
</g>
<text x="1035" y="169" font-size="25" font-weight="500" fill="#F5E9D0">Claude Code</text>

<rect x="970" y="202" width="270" height="60" rx="13" fill="#2a2013" stroke="#E8A33D" stroke-width="1.5" stroke-opacity="0.65"/>
<text x="990" y="242" font-family="'Consolas', 'Courier New', monospace" font-size="26" font-weight="700" fill="#D97757">&lt;/&gt;</text>
<text x="1050" y="241" font-size="25" font-weight="500" fill="#F5E9D0">Codex</text>
</svg>
